<?xml version="1.0" encoding="UTF-8" standalone="no"?>
<svg
   xmlns:dc="http://purl.org/dc/elements/1.1/"
   xmlns:cc="http://creativecommons.org/ns#"
   xmlns:rdf="http://www.w3.org/1999/02/22-rdf-syntax-ns#"
   xmlns:svg="http://www.w3.org/2000/svg"
   xmlns="http://www.w3.org/2000/svg"
   version="1.1"
   width="100"
   height="100"
   viewBox="0 0 99.999997 99.999996">
  <path
     style="fill:#000000;stroke-width:0.03684169"
     d="m 14.769354,99.124046 c -0.606123,-0.0645 -1.268837,-0.25789 -1.799345,-0.52868 -1.478005,-0.75218 -2.465221,-2.06713 -2.8156,-3.750791 -0.05943,-0.285524 -0.06396,-2.662427 -0.07543,-39.908451 -0.0092,-29.372651 -0.0014,-39.71442 0.02978,-40.028495 0.127166,-1.28731 0.678164,-2.432779 1.607674,-3.342769 0.736231,-0.720563 1.682663,-1.218539 2.719615,-1.4313 0.379224,-0.07675 0.137819,-0.07369 4.743368,-0.0614 h 3.196016 v 3.094702 3.094702 H 19.31756 16.2597 V 54.613759 92.965956 H 50.006682 83.753668 V 54.622969 16.270771 h -3.05786 -3.05786 v -3.096236 -3.096237 h 3.840746 c 4.256781,0 4.035798,0.0031 4.847135,0.264032 1.829055,0.591309 3.166233,2.13559 3.534518,4.081752 0.06094,0.322058 0.06429,2.431858 0.06429,40.18415 0,38.318732 -0.0025,39.857487 -0.06678,40.191825 -0.423531,2.204359 -2.010564,3.803599 -4.232321,4.265039 -0.288531,0.0614 -2.321867,0.0645 -35.434661,0.0706 -19.320701,0 -35.260319,0 -35.421369,-0.0307 z M 36.522458,84.77175 c -1.875315,-0.132016 -3.40002,-0.524073 -5.009122,-1.289152 -2.196068,-1.044155 -4.2006,-2.846327 -5.464506,-4.913453 -1.031678,-1.687349 -1.635123,-3.458821 -1.875875,-5.506912 -0.0692,-0.588852 -0.05766,-2.193308 0.02026,-2.81716 0.333304,-2.667952 1.391539,-5.054987 3.127977,-7.056411 0.374676,-0.43197 10.429663,-10.483303 10.895971,-10.892245 2.079072,-1.822743 4.57184,-2.917556 7.386759,-3.243605 0.603062,-0.07061 2.238375,-0.05833 2.862409,0.0307 2.151984,0.267102 4.082467,0.976919 5.813808,2.136818 1.996007,1.337046 3.484046,3.071368 4.5681,5.324238 l 0.165112,0.343241 -1.694245,1.693491 c -1.050995,1.050602 -1.917241,1.881995 -2.281593,2.189624 -0.323043,0.273242 -0.598438,0.496134 -0.611993,0.496134 -0.01351,0 -0.09392,-0.251751 -0.17859,-0.561836 -0.330249,-1.205029 -0.611317,-1.878925 -1.087351,-2.606548 -1.046372,-1.59893 -2.741336,-2.744093 -4.657167,-3.146588 -1.964919,-0.412627 -3.987294,-0.0307 -5.664386,1.075777 -0.46189,0.303944 -0.723859,0.522538 -1.300134,1.083146 -1.004368,0.976919 -9.571439,9.484278 -9.786715,9.718223 -0.471924,0.51302 -0.847746,1.067795 -1.160995,1.714059 -1.749458,3.609873 -0.285952,7.957805 3.279663,9.743706 2.345342,1.174636 5.118366,1.058892 7.318622,-0.307014 0.666986,-0.413855 1.009932,-0.721484 2.960209,-2.655365 1.063803,-1.054901 2.349387,-2.329316 2.856848,-2.832205 l 0.922664,-0.913674 0.514162,0.125876 c 0.282791,0.07062 0.762847,0.168858 1.066791,0.221051 1.10588,0.190349 1.512551,0.217979 3.768475,0.23947 l 2.110595,0.0307 -3.179004,3.152113 c -5.553108,5.50599 -6.214769,6.151949 -6.697389,6.538173 -2.145771,1.716822 -4.621373,2.685451 -7.386758,2.889616 -0.477445,0.03684 -1.20815,0.04299 -1.602614,0 z m 17.432235,-4.062103 c 0.0068,-0.0307 1.400669,-1.41165 3.097556,-3.095009 l 3.085253,-3.060623 h 5.68307 5.683069 v 3.076588 3.076281 h -8.780627 c -5.411221,0 -8.775907,0 -8.768321,-0.0307 z M 51.4065,69.689071 c -4.205457,-0.367496 -7.883206,-2.602559 -10.089403,-6.131993 -0.126674,-0.202629 -0.382743,-0.670825 -0.569065,-1.04047 l -0.338775,-0.671747 0.810517,-0.813895 c 0.445784,-0.447933 1.224985,-1.214855 1.731559,-1.704541 0.813255,-0.786264 0.989343,-0.937008 1.504691,-1.289153 0.321005,-0.217979 0.591395,-0.391136 0.600861,-0.381618 0.0095,0 0.11525,0.35982 0.235049,0.778281 0.254975,0.890954 0.459622,1.396607 0.789917,1.951687 1.301668,2.187783 3.567988,3.529128 6.11849,3.621232 1.882821,0.06754 3.66163,-0.536661 5.082399,-1.726648 0.395733,-0.331574 10.238078,-10.08971 10.581896,-10.491591 0.350528,-0.409557 0.749076,-1.026348 1.001147,-1.549807 1.357195,-2.817775 0.794232,-6.147036 -1.411427,-8.346791 -0.643744,-0.641967 -1.23925,-1.061655 -2.066435,-1.455861 -2.572652,-1.226215 -5.691047,-0.857184 -7.89927,0.934551 -0.153783,0.125875 -1.553448,1.487175 -3.11039,3.027772 -1.556945,1.540597 -2.851055,2.805495 -2.875807,2.811329 -0.02486,0 -0.300996,-0.05527 -0.613893,-0.135087 -1.580621,-0.408021 -2.699568,-0.516398 -5.35831,-0.520082 l -1.473668,-0.0021 3.849957,-3.830922 c 4.411071,-4.389379 5.51131,-5.462394 6.016932,-5.867959 2.029433,-1.627789 4.311334,-2.563568 6.988184,-2.86567 0.620709,-0.07061 2.105962,-0.05834 2.763126,0.0307 2.712059,0.325128 5.181525,1.409809 7.186564,3.156718 0.547533,0.476794 1.032344,0.967709 1.010955,1.023585 -0.01074,0.0307 0.130971,0.23026 0.324541,0.460828 0.634758,0.758632 1.056215,1.372046 1.491837,2.171204 1.695825,3.111894 2.05008,6.789002 0.982109,10.194709 -0.258843,0.825253 -0.775778,1.966732 -1.242848,2.744705 -0.6049,1.007006 -1.204812,1.748139 -2.329462,2.877029 -1.528602,1.534457 -9.304347,9.232834 -9.671039,9.574849 -2.015719,1.879846 -4.628691,3.088868 -7.405179,3.42689 -0.587223,0.07062 -2.061351,0.101309 -2.61576,0.05219 z m 17.495731,-3.783643 c 1.406038,-1.392922 2.570696,-2.538084 2.588129,-2.544839 0.0175,0 0.03172,1.126434 0.03172,2.532867 v 2.545146 H 68.933948 66.34582 l 2.556425,-2.532559 z M 28.49097,52.412467 v -2.394709 h 2.422233 2.422234 l -2.394495,2.394709 c -1.316973,1.317091 -2.406978,2.394711 -2.422233,2.394711 -0.01535,0 -0.02763,-1.07762 -0.02763,-2.394711 z m 0.01689,-8.556482 c -0.0096,-0.0307 -0.0132,-1.4138 -0.008,-3.085491 l 0.0095,-3.03944 h 8.632389 c 4.747813,0 8.623681,0 8.613033,0.0307 -0.01074,0.0307 -1.410683,1.409809 -3.111197,3.094701 l -3.091846,3.063388 h -5.513135 c -4.376578,0 -5.516758,0 -5.530705,-0.04605 z M 25.43311,22.740479 c 0,-3.79101 0.01351,-5.929363 0.03875,-6.176202 0.320707,-3.125097 2.634648,-5.689278 5.70169,-6.317736 0.713384,-0.147366 1.165084,-0.165787 4.123935,-0.165787 2.384259,-3.07e-4 2.809179,0 2.809179,-0.05219 0,-0.0307 0.06404,-0.2578928 0.142302,-0.5065728 0.789102,-2.523042 2.325831,-4.6871837 4.444501,-6.2594038 3.218634,-2.38795437 7.500335,-3.04557877 11.294295,-1.7340149 2.681274,0.9268751 4.919327,2.7103207 6.448023,5.1384937 0.512038,0.813281 1.033296,1.973487 1.336224,2.974046 l 0.127288,0.4206088 3.089034,0.0307 c 2.696268,0.0307 3.137654,0.0307 3.471362,0.08597 2.07139,0.346926 3.786883,1.446036 4.923105,3.154263 0.425738,0.640123 0.781238,1.430379 0.956405,2.126379 0.233607,0.928103 0.216383,0.401575 0.230322,7.03799 l 0.01259,6.051248 H 50.007674 25.433119 Z m 42.986403,-3.03422 c -0.01038,-2.644926 -0.0117,-2.682382 -0.08882,-2.84602 -0.09437,-0.19956 -0.27045,-0.382847 -0.472419,-0.491224 l -0.149332,-0.07982 -5.784144,-0.0307 -5.784145,-0.0307 -0.0218,-1.952609 c -0.02027,-1.807089 -0.02794,-1.979939 -0.100674,-2.318882 -0.479393,-2.2313778 -2.024294,-3.9564898 -4.151011,-4.6359118 -0.670556,-0.214909 -1.039225,-0.267102 -1.878926,-0.267102 -0.618093,3.07e-4 -0.803496,0 -1.150487,0.08289 -0.698687,0.141226 -1.444314,0.428898 -1.999051,0.771833 -1.490901,0.921656 -2.47228,2.3179558 -2.843559,4.0461358 -0.07285,0.338944 -0.08037,0.511793 -0.100675,2.318879 l -0.0218,1.952609 -5.784145,0.0307 -5.784145,0.0307 -0.149332,0.07982 c -0.202107,0.107456 -0.378183,0.291664 -0.472558,0.491223 -0.07722,0.162717 -0.07838,0.199559 -0.08861,2.846021 l -0.01039,2.680232 h 18.423361 18.423356 z"
     id="path4514" />
</svg>
